<?xml version="1.0" standalone="no"?>
<!DOCTYPE svg PUBLIC "-//W3C//DTD SVG 20010904//EN"
 "http://www.w3.org/TR/2001/REC-SVG-20010904/DTD/svg10.dtd">
<svg version="1.0" xmlns="http://www.w3.org/2000/svg"
 width="1080.000000pt" height="1080.000000pt" viewBox="0 0 1080.000000 1080.000000"
 preserveAspectRatio="xMidYMid meet">

<g transform="translate(0.000000,1080.000000) scale(0.100000,-0.100000)"
fill="#000000" stroke="none">
<path d="M7564 7690 c20 -75 46 -215 51 -285 5 -63 3 -84 -8 -100 -15 -19 -16
-18 -46 14 -54 58 -133 213 -176 345 -5 19 -6 19 -21 -3 -14 -20 -13 -27 15
-96 38 -91 39 -105 4 -105 -23 0 -69 23 -183 92 -19 12 -32 18 -28 13 4 -4 3
-14 -2 -20 -8 -10 7 -22 57 -50 156 -85 308 -217 384 -334 65 -98 64 -105 -8
-98 l-56 6 65 -67 c139 -142 262 -376 284 -540 6 -48 5 -52 -14 -52 -21 0 -58
27 -124 89 -27 25 -38 30 -38 19 0 -9 7 -19 15 -22 27 -10 64 -110 85 -228 34
-188 24 -415 -21 -518 l-20 -45 -19 23 c-23 28 -58 118 -66 172 -4 22 -10 43
-15 46 -13 8 -29 -30 -18 -47 15 -25 10 -190 -10 -284 -45 -209 -156 -448
-238 -509 -41 -31 -48 -11 -46 134 l1 129 -22 -10 c-14 -7 -27 -27 -35 -57 -8
-26 -31 -79 -51 -119 l-38 -72 37 -53 c42 -59 35 -58 161 -34 85 17 294 23
343 10 37 -9 52 4 31 27 -16 17 -16 20 0 44 l17 26 -33 -5 c-165 -27 -191 -28
-275 -10 -13 2 -23 11 -23 20 0 23 87 105 150 142 l55 32 -39 0 -39 0 7 41
c25 156 272 439 485 556 2 1 -4 9 -13 18 -13 14 -19 14 -40 3 -155 -86 -161
-87 -153 -22 6 60 73 193 134 269 81 100 97 125 79 125 -8 0 -19 8 -25 17 -5
10 -11 16 -13 13 -2 -3 -19 -27 -37 -55 -39 -57 -81 -105 -92 -105 -5 0 -13
19 -20 43 -30 112 32 374 140 585 18 35 19 45 9 61 -11 18 -16 11 -56 -72 -40
-85 -75 -137 -93 -137 -39 0 -45 241 -10 409 11 57 23 106 25 110 3 3 -12 6
-33 6 l-37 0 -10 -97 c-12 -112 -22 -131 -55 -102 -82 72 -168 416 -156 627 3
53 3 97 1 97 -2 0 -13 -5 -24 -12 -16 -10 -23 -9 -41 7 l-22 20 7 -25z"/>
<path d="M5770 7589 c-177 -28 -237 -42 -345 -77 -291 -96 -553 -324 -669
-582 -44 -99 -63 -152 -80 -222 -8 -36 7 -40 154 -36 l114 3 17 65 c76 290
215 494 431 634 48 31 90 56 93 56 3 0 24 9 48 19 325 150 772 109 1062 -97
191 -135 345 -373 396 -609 15 -72 17 -73 130 -73 45 0 91 -6 112 -15 48 -20
47 -20 47 17 0 49 -41 169 -98 283 -143 290 -431 510 -772 591 -101 24 -109
25 -210 40 -105 15 -344 17 -430 3z"/>
<path d="M7481 7079 c9 -17 13 -19 20 -8 5 8 3 16 -4 21 -22 14 -28 8 -16 -13z"/>
<path d="M6920 6528 c-11 -9 -20 -19 -20 -22 0 -3 42 -7 93 -8 l92 -3 3 -209
c2 -169 0 -214 -13 -238 -8 -17 -12 -34 -9 -39 9 -15 56 -10 99 11 l40 18 -35
4 c-29 2 -34 7 -31 23 3 17 17 286 20 398 l1 37 88 0 c70 0 92 4 112 20 25 19
25 19 -197 22 -195 3 -225 1 -243 -14z"/>
<path d="M2710 6530 c0 -5 -17 -11 -37 -11 -21 -1 -1 -5 45 -9 46 -4 88 -12
95 -19 16 -16 42 -14 58 5 11 14 10 18 -6 30 -22 16 -155 20 -155 4z"/>
<path d="M3027 6526 c-17 -13 -16 -14 3 -19 19 -5 20 -13 20 -139 -1 -166 -14
-324 -30 -343 -21 -25 30 -29 86 -6 l49 20 -33 7 c-30 6 -33 10 -27 33 3 14 9
115 12 223 4 143 9 200 18 208 22 18 103 -9 141 -47 40 -39 44 -74 15 -133
-23 -48 -14 -50 33 -10 66 59 55 154 -23 198 -33 19 -54 22 -142 22 -71 -1
-110 -5 -122 -14z"/>
<path d="M3783 6528 c-50 -17 -39 -28 27 -28 93 0 167 -46 206 -128 52 -111 5
-266 -93 -307 -48 -20 -82 -19 -147 5 -144 55 -193 237 -98 368 31 43 13 41
-31 -3 -65 -65 -92 -177 -65 -269 18 -59 92 -131 157 -150 45 -13 57 -13 108
0 32 8 60 19 61 24 2 6 10 10 18 10 8 0 20 4 27 9 115 90 152 156 145 261 -7
97 -46 157 -126 196 -44 21 -144 28 -189 12z"/>
<path d="M4270 6530 c0 -5 -8 -10 -17 -11 -13 0 -12 -3 6 -10 l23 -9 -4 -213
c-3 -170 -7 -218 -20 -244 -15 -31 -15 -33 3 -38 27 -9 126 25 108 36 -8 5
-22 9 -33 9 -15 0 -17 5 -11 23 4 12 9 108 12 212 5 245 2 235 59 235 119 0
180 -105 125 -213 -21 -42 -15 -46 22 -17 37 29 57 76 57 129 -1 52 -11 70
-60 100 -30 18 -50 21 -152 21 -72 0 -118 -4 -118 -10z"/>
<path d="M4918 6527 c-58 -16 -45 -27 31 -27 149 0 226 -79 225 -230 0 -91
-26 -155 -76 -194 -30 -22 -45 -26 -102 -26 -96 0 -171 44 -214 125 -25 49
-21 179 8 235 12 25 28 48 34 52 6 4 7 10 3 14 -14 14 -92 -80 -105 -128 -22
-74 -18 -163 9 -215 44 -86 152 -139 248 -121 51 9 56 7 139 -33 87 -42 144
-53 187 -35 17 6 9 12 -43 31 -66 24 -142 69 -142 84 0 6 13 19 28 30 15 11
41 43 58 73 26 47 29 63 29 138 0 71 -4 92 -24 127 -54 94 -172 134 -293 100z"/>
<path d="M6066 6525 c-17 -13 -17 -15 -2 -21 15 -6 16 -31 15 -253 l-2 -246
74 -3 c41 -2 89 0 107 3 58 11 34 25 -43 25 -73 0 -82 4 -75 35 1 5 4 52 8
105 l7 95 70 5 c125 9 128 40 4 40 l-80 0 3 98 3 97 87 1 c62 0 93 5 110 17
22 15 15 16 -122 16 -111 0 -149 -3 -164 -14z"/>
<path d="M6658 6527 c-43 -17 -33 -27 26 -27 30 0 57 -4 61 -10 9 -15 56 11
53 29 -4 20 -99 25 -140 8z"/>
<path d="M5400 6520 c-13 -9 -13 -11 0 -20 12 -8 15 -42 15 -202 0 -212 4
-231 57 -263 53 -31 97 -36 161 -18 31 8 57 20 57 24 0 5 -27 9 -59 9 -117 0
-162 56 -160 201 1 103 13 238 23 262 7 15 2 17 -35 17 -24 0 -51 -5 -59 -10z"/>
<path d="M5760 6520 c-13 -9 -13 -12 3 -21 17 -10 18 -29 16 -252 l-1 -242 25
-3 c14 -2 45 6 69 17 l43 19 -35 7 -36 6 3 137 c2 75 4 183 6 240 l3 102 -41
0 c-22 0 -47 -5 -55 -10z"/>
<path d="M3715 6490 c-3 -5 -2 -10 4 -10 5 0 13 5 16 10 3 6 2 10 -4 10 -5 0
-13 -4 -16 -10z"/>
<path d="M4840 6490 c0 -5 4 -10 9 -10 6 0 13 5 16 10 3 6 -1 10 -9 10 -9 0
-16 -4 -16 -10z"/>
<path d="M2522 6454 c-39 -31 -75 -92 -92 -158 -25 -93 23 -202 110 -250 90
-49 175 -50 259 -5 l36 20 -63 -7 c-110 -12 -221 37 -258 113 -41 86 -26 221
32 278 42 42 26 49 -24 9z"/>
<path d="M6528 6439 c-34 -44 -36 -89 -5 -123 12 -13 58 -43 102 -66 107 -55
115 -64 115 -117 0 -46 8 -53 32 -25 62 70 43 111 -83 177 -48 26 -96 56 -106
67 -10 11 -20 42 -23 71 l-5 52 -27 -36z"/>
<path d="M3192 6267 l-22 -13 41 -44 c170 -182 190 -200 217 -200 15 1 38 7
52 15 l25 14 -23 8 c-24 9 -207 186 -223 216 -11 20 -35 21 -67 4z"/>
<path d="M6483 6075 c-29 -20 -20 -41 23 -55 46 -16 83 -15 127 1 50 18 47 29
-10 29 -30 0 -60 8 -81 20 -39 24 -33 23 -59 5z"/>
<path d="M7230 5910 c-8 -5 -61 -10 -116 -10 -69 0 -105 -4 -111 -12 -6 -7
-20 -47 -33 -88 -34 -115 -76 -204 -143 -303 -38 -57 -99 -127 -111 -127 -3 0
-76 88 -161 195 -92 115 -166 200 -181 205 -35 14 -280 13 -306 -1 -11 -6 -16
-14 -11 -18 5 -3 78 -94 163 -201 85 -107 178 -224 207 -260 30 -35 52 -71 51
-79 -3 -14 -103 -57 -173 -73 -117 -27 -175 -33 -330 -33 -202 0 -307 17 -440
70 -223 88 -400 255 -492 464 -38 84 -73 186 -73 209 0 43 -24 52 -143 52 -62
0 -118 -4 -125 -9 -11 -6 -7 -25 19 -92 60 -157 128 -260 253 -385 217 -216
497 -336 874 -374 183 -19 438 13 634 78 33 11 62 15 71 11 12 -7 99 -114 192
-238 11 -14 49 -63 85 -107 36 -45 83 -104 105 -133 l40 -51 167 0 c93 0 168
4 168 8 0 5 -42 61 -92 124 -51 64 -129 161 -173 217 -44 56 -115 146 -157
199 -43 53 -78 104 -78 113 0 8 24 32 53 52 75 52 180 161 244 253 112 162
193 388 123 344z"/>
<path d="M7835 5418 c-69 -49 -108 -84 -85 -76 83 29 148 54 162 63 15 10 15
12 -1 33 l-17 23 -59 -43z"/>
<path d="M7484 4819 c-3 -6 10 -28 30 -48 35 -34 37 -35 31 -10 -4 17 -1 30
10 39 13 10 13 15 3 21 -19 12 -66 11 -74 -2z"/>
</g>
</svg>
